<?xml version="1.0" encoding="utf-8"?>
<!-- Generator: Adobe Illustrator 25.0.0, SVG Export Plug-In . SVG Version: 6.00 Build 0)  -->
<svg version="1.1" id="Layer_1" xmlns="http://www.w3.org/2000/svg" xmlns:xlink="http://www.w3.org/1999/xlink" x="0px" y="0px"
	 viewBox="0 0 12 12" style="enable-background:new 0 0 12 12;" xml:space="preserve">
<style type="text/css">
	.st0{fill:#FFFFFF;}
</style>
<path class="st0" d="M10.5,4.2c0-0.4-0.1-0.8-0.2-1.1C10,2.4,9.6,2,8.9,1.7C8.6,1.6,8.2,1.5,7.9,1.5c-0.5,0-0.6,0-1.9,0
	s-1.4,0-1.9,0c-0.4,0-0.7,0.1-1.1,0.2C2.4,2,2,2.4,1.7,3C1.6,3.4,1.5,3.8,1.5,4.1c0,0.5,0,0.6,0,1.9s0,1.4,0,1.9
	c0,0.4,0.1,0.7,0.2,1.1C2,9.5,2.4,10,3.1,10.3c0.3,0.1,0.7,0.2,1.1,0.2c0.5,0,0.6,0,1.9,0s1.4,0,1.9,0c0.4,0,0.7-0.1,1.1-0.2
	C9.6,10,10,9.6,10.3,9c0.1-0.4,0.2-0.7,0.2-1.1c0-0.5,0-0.6,0-1.9C10.5,4.8,10.5,4.6,10.5,4.2z M6,8.3c-1.3,0-2.3-1-2.3-2.3
	s1-2.3,2.3-2.3c1.3,0,2.3,1,2.3,2.3S7.3,8.3,6,8.3z M8.4,4.1c-0.3,0-0.5-0.2-0.5-0.5c0,0,0,0,0,0c0-0.3,0.2-0.5,0.5-0.5
	s0.5,0.2,0.5,0.5l0,0C8.9,3.9,8.7,4.1,8.4,4.1z"/>
<circle class="st0" cx="6" cy="6" r="1.5"/>
</svg>
